<svg width="98" height="76" viewBox="0 0 98 76" fill="none" xmlns="http://www.w3.org/2000/svg">
    <path fill-rule="evenodd" clip-rule="evenodd" d="M63.871 60.3545C58.4999 59.2217 52.73 57.8037 46.762 56.1162C20.106 48.581 -0.53103 38.5112 0.70297 33.6432C1.20297 31.6784 5.19517 30.858 11.535 31.0768L7.25767 29.5026L13.4061 30.7292L12.328 27.7839L14.2108 30.2409L16.2733 24.0104L15.1092 30.4948L17.9022 29.3581L15.5897 31.3308C24.8163 32.1316 37.4917 34.5925 51.2377 38.4753C56.5697 39.9831 61.6597 41.5925 66.3827 43.2409L67.2459 43.4128L66.5428 41.4831L67.7733 43.0925L69.1249 39.0144L68.3593 43.2566L70.1874 42.5144L68.664 43.8113L72.5312 45.2371L71.1484 44.9637C71.8476 45.2215 72.5312 45.4832 73.2109 45.7449C78.0312 30.8539 72.375 13.9399 58.9729 5.77593C53.2424 2.28763 46.9109 0.889229 40.7739 1.35793C49.0512 -0.493671 57.9809 0.74855 65.8759 5.55713C80.6059 14.5298 86.9379 32.9831 81.9499 49.4051C91.9699 53.9715 97.9809 58.2567 97.2979 60.9481C96.6065 63.6708 89.2354 64.1942 78.2119 62.8114L75.6533 61.87L77.9814 59.8856L75.1923 61.0184L76.3564 54.534L74.2939 60.7645L72.4111 58.3114L73.4892 61.2567L67.3408 60.0262L70.0947 61.0418C68.2353 60.7215 66.3017 60.3582 64.3095 59.948C66.7587 57.6355 68.9072 54.8777 70.6376 51.7136C71.6142 49.9324 72.4149 48.1003 73.0517 46.2292C71.5986 45.6589 70.0947 45.0847 68.54 44.5183L69.2119 46.3621L67.9814 44.7527L66.6298 48.8347L67.3954 44.5886L65.5673 45.3308L67.0907 44.0339L64.8759 43.2175C60.5712 41.7292 55.954 40.2761 51.1299 38.9128C38.3529 35.3034 26.5479 32.987 17.8289 32.1745L21.4812 33.5222L15.3328 32.2917L16.4109 35.237L14.5281 32.7839L12.4656 39.0144L13.6297 32.5261L10.8406 33.6628L12.9422 31.8698C7.18051 31.7135 3.55941 32.4987 3.09841 34.319C1.92261 38.9479 21.5364 48.518 46.8714 55.678C52.9847 57.4046 58.8715 58.8387 64.3095 59.948C64.165 60.0847 64.0204 60.217 63.8719 60.3537L63.871 60.3545ZM78.2119 62.8114L81.5626 64.0459L75.4142 62.8154L76.4884 65.7646L74.6095 63.3076L72.547 69.5381L73.504 64.2061C74.047 63.6202 74.5743 63.0108 75.086 62.3819C76.1563 62.5421 77.2002 62.6864 78.2119 62.8114ZM73.504 64.2061C62.438 76.1441 44.703 79.171 30.367 70.4404C22.4725 65.6279 16.988 58.0924 14.371 49.6044C17.0546 55.4482 21.3671 60.5344 27.098 64.0224C39.153 71.3662 53.891 69.4444 63.871 60.3545C66.9726 61.0069 69.9452 61.5614 72.7421 62.0185L73.246 62.206L70.9179 64.1904L73.7109 63.0537L73.504 64.2061Z" fill="white"/>
</svg>
