<svg xmlns="http://www.w3.org/2000/svg" version="1.1" viewBox="-5.0 -10.0 110.0 135.0">
 <path d="m64.871 72.355c-5.3711-1.1328-11.141-2.5508-17.109-4.2383-26.656-7.5352-47.293-17.605-46.059-22.473 0.5-1.9648 4.4922-2.7852 10.832-2.5664l-4.2773-1.5742 6.1484 1.2266-1.0781-2.9453 1.8828 2.457 2.0625-6.2305-1.1641 6.4844 2.793-1.1367-2.3125 1.9727c9.2266 0.80078 21.902 3.2617 35.648 7.1445 5.332 1.5078 10.422 3.1172 15.145 4.7656l0.86328 0.17187-0.70312-1.9297 1.2305 1.6094 1.3516-4.0781-0.76562 4.2422 1.8281-0.74219-1.5234 1.2969 3.8672 1.4258-1.3828-0.27344c0.69922 0.25781 1.3828 0.51953 2.0625 0.78125 4.8203-14.891-0.83594-31.805-14.238-39.969-5.7305-3.4883-12.062-4.8867-18.199-4.418 8.2773-1.8516 17.207-0.60938 25.102 4.1992 14.73 8.9727 21.062 27.426 16.074 43.848 10.02 4.5664 16.031 8.8516 15.348 11.543-0.69141 2.7227-8.0625 3.2461-19.086 1.8633l-2.5586-0.94141 2.3281-1.9844-2.7891 1.1328 1.1641-6.4844-2.0625 6.2305-1.8828-2.4531 1.0781 2.9453-6.1484-1.2305 2.7539 1.0156c-1.8594-0.32031-3.793-0.68359-5.7852-1.0938 2.4492-2.3125 4.5977-5.0703 6.3281-8.2344 0.97656-1.7812 1.7773-3.6133 2.4141-5.4844-1.4531-0.57031-2.957-1.1445-4.5117-1.7109l0.67188 1.8438-1.2305-1.6094-1.3516 4.082 0.76562-4.2461-1.8281 0.74219 1.5234-1.2969-2.2148-0.81641c-4.3047-1.4883-8.9219-2.9414-13.746-4.3047-12.777-3.6094-24.582-5.9258-33.301-6.7383l3.6523 1.3477-6.1484-1.2305 1.0781 2.9453-1.8828-2.4531-2.0625 6.2305 1.1641-6.4883-2.7891 1.1367 2.1016-1.793c-5.7617-0.15625-9.3828 0.62891-9.8438 2.4492-1.1758 4.6289 18.438 14.199 43.773 21.359 6.1133 1.7266 12 3.1602 17.438 4.2695-0.14453 0.13672-0.28906 0.26953-0.4375 0.40625zm14.34 2.457 3.3516 1.2344-6.1484-1.2305 1.0742 2.9492-1.8789-2.457-2.0625 6.2305 0.95703-5.332c0.54297-0.58594 1.0703-1.1953 1.582-1.8242 1.0703 0.16016 2.1133 0.30469 3.125 0.42969zm-4.707 1.3945c-11.066 11.938-28.801 14.965-43.137 6.2344-7.8945-4.8125-13.379-12.348-15.996-20.836 2.6836 5.8438 6.9961 10.93 12.727 14.418 12.055 7.3438 26.793 5.4219 36.773-3.668 3.1016 0.65234 6.0742 1.207 8.8711 1.6641l0.50391 0.1875-2.3281 1.9844 2.793-1.1367z" fill-rule="evenodd"/>
<text x="0.0" y="117.5" font-size="5.0" font-weight="bold" font-family="Arbeit Regular, Helvetica, Arial-Unicode, Arial, Sans-serif" fill="#000000">Created by Paphada</text><text x="0.0" y="122.5" font-size="5.0" font-weight="bold" font-family="Arbeit Regular, Helvetica, Arial-Unicode, Arial, Sans-serif" fill="#000000">from Noun Project</text></svg>